<svg width="123" height="112" viewBox="0 0 123 112" fill="none" xmlns="http://www.w3.org/2000/svg">
<path fill-rule="evenodd" clip-rule="evenodd" d="M3 19.5586C3.789 19.5586 4.563 19.2391 5.121 18.6796C5.6805 18.1216 6 17.3491 6 16.5586C6 15.7681 5.6805 14.9956 5.121 14.4376C4.563 13.8781 3.789 13.5586 3 13.5586C2.2095 13.5586 1.437 13.8781 0.8775 14.4376C0.3195 14.9956 0 15.7681 0 16.5586C0 17.3491 0.3195 18.1216 0.8775 18.6796C1.437 19.2391 2.2095 19.5586 3 19.5586" fill="#FEF7FF" fill-opacity="0.47"/>
<path fill-rule="evenodd" clip-rule="evenodd" d="M35.9925 19.5586H36.0075C37.6608 19.5586 39 18.2146 39 16.5586C39 14.9026 37.6608 13.5586 36.0075 13.5586H35.9925C34.3406 13.5586 33 14.9026 33 16.5586C33 18.2146 34.3406 19.5586 35.9925 19.5586" fill="#FEF7FF" fill-opacity="0.47"/>
<path fill-rule="evenodd" clip-rule="evenodd" d="M19.9925 19.5586H20.0075C21.6594 19.5586 23 18.2146 23 16.5586C23 14.9026 21.6594 13.5586 20.0075 13.5586H19.9925C18.3406 13.5586 17 14.9026 17 16.5586C17 18.2146 18.3406 19.5586 19.9925 19.5586" fill="#FEF7FF" fill-opacity="0.47"/>
<path fill-rule="evenodd" clip-rule="evenodd" d="M53 19.5586C53.789 19.5586 54.563 19.2391 55.121 18.6796C55.6805 18.1216 56 17.3491 56 16.5586C56 15.7681 55.6805 14.9956 55.121 14.4376C54.563 13.8781 53.789 13.5586 53 13.5586C52.2095 13.5586 51.437 13.8781 50.8775 14.4376C50.3195 14.9956 50 15.7681 50 16.5586C50 17.3491 50.3195 18.1216 50.8775 18.6796C51.437 19.2391 52.2095 19.5586 53 19.5586" fill="#FEF7FF" fill-opacity="0.47"/>
<path fill-rule="evenodd" clip-rule="evenodd" d="M70 19.5586C70.7905 19.5586 71.563 19.2391 72.1225 18.6796C72.6805 18.1216 73 17.3491 73 16.5586C73 15.7681 72.6805 14.9956 72.1225 14.4376C71.563 13.8781 70.7905 13.5586 70 13.5586C69.211 13.5586 68.437 13.8781 67.879 14.4376C67.3195 14.9956 67 15.7681 67 16.5586C67 17.3491 67.3195 18.1216 67.879 18.6796C68.437 19.2391 69.211 19.5586 70 19.5586" fill="#FEF7FF" fill-opacity="0.47"/>
<path fill-rule="evenodd" clip-rule="evenodd" d="M102.993 19.5586H103.007C104.661 19.5586 106 18.2146 106 16.5586C106 14.9026 104.661 13.5586 103.007 13.5586H102.993C101.341 13.5586 100 14.9026 100 16.5586C100 18.2146 101.341 19.5586 102.993 19.5586" fill="#FEF7FF" fill-opacity="0.47"/>
<path fill-rule="evenodd" clip-rule="evenodd" d="M85.9925 19.5586H86.0075C87.6594 19.5586 89 18.2146 89 16.5586C89 14.9026 87.6594 13.5586 86.0075 13.5586H85.9925C84.3406 13.5586 83 14.9026 83 16.5586C83 18.2146 84.3406 19.5586 85.9925 19.5586" fill="#FEF7FF" fill-opacity="0.47"/>
<mask id="mask0_5963_12664" style="mask-type:luminance" maskUnits="userSpaceOnUse" x="116" y="13" width="7" height="7">
<path fill-rule="evenodd" clip-rule="evenodd" d="M116.303 13.3438H122.702V19.7438H116.303V13.3438Z" fill="white"/>
</mask>
<g mask="url(#mask0_5963_12664)">
<path fill-rule="evenodd" clip-rule="evenodd" d="M119.503 19.7438C120.344 19.7438 121.17 19.4029 121.765 18.8061C122.362 18.2109 122.703 17.387 122.703 16.5438C122.703 15.7006 122.362 14.8766 121.765 14.2814C121.17 13.6845 120.344 13.3438 119.503 13.3438C118.66 13.3438 117.836 13.6845 117.239 14.2814C116.644 14.8766 116.303 15.7006 116.303 16.5438C116.303 17.387 116.644 18.2109 117.239 18.8061C117.836 19.4029 118.66 19.7438 119.503 19.7438" fill="#FEF7FF" fill-opacity="0.47"/>
</g>
<path fill-rule="evenodd" clip-rule="evenodd" d="M3 6.55859C3.789 6.55859 4.563 6.23909 5.121 5.67959C5.6805 5.12159 6 4.34759 6 3.55859C6 2.76809 5.6805 1.99559 5.121 1.43609C4.563 0.878094 3.789 0.558594 3 0.558594C2.2095 0.558594 1.437 0.878094 0.8775 1.43609C0.3195 1.99559 0 2.76809 0 3.55859C0 4.34759 0.3195 5.12159 0.8775 5.67959C1.437 6.23909 2.2095 6.55859 3 6.55859" fill="#FEF7FF" fill-opacity="0.47"/>
<path fill-rule="evenodd" clip-rule="evenodd" d="M35.9925 6.55859H36.0075C37.6608 6.55859 39 5.21459 39 3.55859C39 1.90259 37.6608 0.558594 36.0075 0.558594H35.9925C34.3406 0.558594 33 1.90259 33 3.55859C33 5.21459 34.3406 6.55859 35.9925 6.55859" fill="#FEF7FF" fill-opacity="0.47"/>
<path fill-rule="evenodd" clip-rule="evenodd" d="M19.9925 6.55859H20.0075C21.6594 6.55859 23 5.21459 23 3.55859C23 1.90259 21.6594 0.558594 20.0075 0.558594H19.9925C18.3406 0.558594 17 1.90259 17 3.55859C17 5.21459 18.3406 6.55859 19.9925 6.55859" fill="#FEF7FF" fill-opacity="0.47"/>
<path fill-rule="evenodd" clip-rule="evenodd" d="M53 6.55859C53.789 6.55859 54.563 6.23909 55.121 5.67959C55.6805 5.12159 56 4.34759 56 3.55859C56 2.76809 55.6805 1.99559 55.121 1.43609C54.563 0.878094 53.789 0.558594 53 0.558594C52.2095 0.558594 51.437 0.878094 50.8775 1.43609C50.3195 1.99559 50 2.76809 50 3.55859C50 4.34759 50.3195 5.12159 50.8775 5.67959C51.437 6.23909 52.2095 6.55859 53 6.55859" fill="#FEF7FF" fill-opacity="0.47"/>
<path fill-rule="evenodd" clip-rule="evenodd" d="M70 6.55859C70.7905 6.55859 71.563 6.23909 72.1225 5.67959C72.6805 5.12159 73 4.34759 73 3.55859C73 2.76809 72.6805 1.99559 72.1225 1.43609C71.563 0.878094 70.7905 0.558594 70 0.558594C69.211 0.558594 68.437 0.878094 67.879 1.43609C67.3195 1.99559 67 2.76809 67 3.55859C67 4.34759 67.3195 5.12159 67.879 5.67959C68.437 6.23909 69.211 6.55859 70 6.55859" fill="#FEF7FF" fill-opacity="0.47"/>
<path fill-rule="evenodd" clip-rule="evenodd" d="M102.993 6.55859H103.007C104.661 6.55859 106 5.21459 106 3.55859C106 1.90259 104.661 0.558594 103.007 0.558594H102.993C101.341 0.558594 100 1.90259 100 3.55859C100 5.21459 101.341 6.55859 102.993 6.55859" fill="#FEF7FF" fill-opacity="0.47"/>
<path fill-rule="evenodd" clip-rule="evenodd" d="M85.9925 6.55859H86.0075C87.6594 6.55859 89 5.21459 89 3.55859C89 1.90259 87.6594 0.558594 86.0075 0.558594H85.9925C84.3406 0.558594 83 1.90259 83 3.55859C83 5.21459 84.3406 6.55859 85.9925 6.55859" fill="#FEF7FF" fill-opacity="0.47"/>
<mask id="mask1_5963_12664" style="mask-type:luminance" maskUnits="userSpaceOnUse" x="116" y="0" width="7" height="7">
<path fill-rule="evenodd" clip-rule="evenodd" d="M116.303 0H122.702V6.4H116.303V0Z" fill="white"/>
</mask>
<g mask="url(#mask1_5963_12664)">
<path fill-rule="evenodd" clip-rule="evenodd" d="M119.503 6.4C120.344 6.4 121.17 6.0592 121.765 5.4624C122.362 4.8672 122.703 4.0416 122.703 3.2C122.703 2.3568 122.362 1.5328 121.765 0.936C121.17 0.3408 120.344 0 119.503 0C118.66 0 117.836 0.3408 117.239 0.936C116.644 1.5328 116.303 2.3568 116.303 3.2C116.303 4.0416 116.644 4.8672 117.239 5.4624C117.836 6.0592 118.66 6.4 119.503 6.4" fill="#FEF7FF" fill-opacity="0.47"/>
</g>
<path fill-rule="evenodd" clip-rule="evenodd" d="M3 32.5586C3.789 32.5586 4.563 32.2391 5.121 31.6796C5.6805 31.1216 6 30.3491 6 29.5586C6 28.7696 5.6805 27.9956 5.121 27.4376C4.563 26.8781 3.789 26.5586 3 26.5586C2.2095 26.5586 1.437 26.8781 0.8775 27.4376C0.3195 27.9956 0 28.7696 0 29.5586C0 30.3491 0.3195 31.1216 0.8775 31.6796C1.437 32.2391 2.2095 32.5586 3 32.5586" fill="#FEF7FF" fill-opacity="0.47"/>
<path fill-rule="evenodd" clip-rule="evenodd" d="M35.9925 32.5586H36.0075C37.6608 32.5586 39 31.2146 39 29.5586C39 27.9026 37.6608 26.5586 36.0075 26.5586H35.9925C34.3406 26.5586 33 27.9026 33 29.5586C33 31.2146 34.3406 32.5586 35.9925 32.5586" fill="#FEF7FF" fill-opacity="0.47"/>
<path fill-rule="evenodd" clip-rule="evenodd" d="M19.9925 32.5586H20.0075C21.6594 32.5586 23 31.2146 23 29.5586C23 27.9026 21.6594 26.5586 20.0075 26.5586H19.9925C18.3406 26.5586 17 27.9026 17 29.5586C17 31.2146 18.3406 32.5586 19.9925 32.5586" fill="#FEF7FF" fill-opacity="0.47"/>
<path fill-rule="evenodd" clip-rule="evenodd" d="M53 32.5586C53.789 32.5586 54.563 32.2391 55.121 31.6796C55.6805 31.1216 56 30.3491 56 29.5586C56 28.7696 55.6805 27.9956 55.121 27.4376C54.563 26.8781 53.789 26.5586 53 26.5586C52.2095 26.5586 51.437 26.8781 50.8775 27.4376C50.3195 27.9956 50 28.7696 50 29.5586C50 30.3491 50.3195 31.1216 50.8775 31.6796C51.437 32.2391 52.2095 32.5586 53 32.5586" fill="#FEF7FF" fill-opacity="0.47"/>
<path fill-rule="evenodd" clip-rule="evenodd" d="M70 32.5586C70.7905 32.5586 71.563 32.2391 72.1225 31.6796C72.6805 31.1216 73 30.3491 73 29.5586C73 28.7696 72.6805 27.9956 72.1225 27.4376C71.563 26.8781 70.7905 26.5586 70 26.5586C69.211 26.5586 68.437 26.8781 67.879 27.4376C67.3195 27.9956 67 28.7696 67 29.5586C67 30.3491 67.3195 31.1216 67.879 31.6796C68.437 32.2391 69.211 32.5586 70 32.5586" fill="#FEF7FF" fill-opacity="0.47"/>
<path fill-rule="evenodd" clip-rule="evenodd" d="M102.993 32.5586H103.007C104.661 32.5586 106 31.2146 106 29.5586C106 27.9026 104.661 26.5586 103.007 26.5586H102.993C101.341 26.5586 100 27.9026 100 29.5586C100 31.2146 101.341 32.5586 102.993 32.5586" fill="#FEF7FF" fill-opacity="0.47"/>
<path fill-rule="evenodd" clip-rule="evenodd" d="M85.9925 32.5586H86.0075C87.6594 32.5586 89 31.2146 89 29.5586C89 27.9026 87.6594 26.5586 86.0075 26.5586H85.9925C84.3406 26.5586 83 27.9026 83 29.5586C83 31.2146 84.3406 32.5586 85.9925 32.5586" fill="#FEF7FF" fill-opacity="0.47"/>
<mask id="mask2_5963_12664" style="mask-type:luminance" maskUnits="userSpaceOnUse" x="116" y="26" width="7" height="8">
<path fill-rule="evenodd" clip-rule="evenodd" d="M116.303 26.6875H122.702V33.0875H116.303V26.6875Z" fill="white"/>
</mask>
<g mask="url(#mask2_5963_12664)">
<path fill-rule="evenodd" clip-rule="evenodd" d="M119.503 33.0875C120.344 33.0875 121.17 32.7467 121.765 32.1499C122.362 31.5547 122.703 30.7307 122.703 29.8875C122.703 29.0459 122.362 28.2203 121.765 27.6251C121.17 27.0283 120.344 26.6875 119.503 26.6875C118.66 26.6875 117.836 27.0283 117.239 27.6251C116.644 28.2203 116.303 29.0459 116.303 29.8875C116.303 30.7307 116.644 31.5547 117.239 32.1499C117.836 32.7467 118.66 33.0875 119.503 33.0875" fill="#FEF7FF" fill-opacity="0.47"/>
</g>
<path fill-rule="evenodd" clip-rule="evenodd" d="M3 45.5586C3.789 45.5586 4.563 45.2391 5.121 44.6796C5.6805 44.1216 6 43.3491 6 42.5586C6 41.7681 5.6805 40.9956 5.121 40.4376C4.563 39.8781 3.789 39.5586 3 39.5586C2.2095 39.5586 1.437 39.8781 0.8775 40.4376C0.3195 40.9956 0 41.7681 0 42.5586C0 43.3491 0.3195 44.1216 0.8775 44.6796C1.437 45.2391 2.2095 45.5586 3 45.5586" fill="#FEF7FF" fill-opacity="0.47"/>
<path fill-rule="evenodd" clip-rule="evenodd" d="M35.9925 45.5586H36.0075C37.6608 45.5586 39 44.2146 39 42.5586C39 40.9026 37.6608 39.5586 36.0075 39.5586H35.9925C34.3406 39.5586 33 40.9026 33 42.5586C33 44.2146 34.3406 45.5586 35.9925 45.5586" fill="#FEF7FF" fill-opacity="0.47"/>
<path fill-rule="evenodd" clip-rule="evenodd" d="M19.9925 45.5586H20.0075C21.6594 45.5586 23 44.2146 23 42.5586C23 40.9026 21.6594 39.5586 20.0075 39.5586H19.9925C18.3406 39.5586 17 40.9026 17 42.5586C17 44.2146 18.3406 45.5586 19.9925 45.5586" fill="#FEF7FF" fill-opacity="0.47"/>
<path fill-rule="evenodd" clip-rule="evenodd" d="M53 45.5586C53.789 45.5586 54.563 45.2391 55.121 44.6796C55.6805 44.1216 56 43.3491 56 42.5586C56 41.7681 55.6805 40.9956 55.121 40.4376C54.563 39.8781 53.789 39.5586 53 39.5586C52.2095 39.5586 51.437 39.8781 50.8775 40.4376C50.3195 40.9956 50 41.7681 50 42.5586C50 43.3491 50.3195 44.1216 50.8775 44.6796C51.437 45.2391 52.2095 45.5586 53 45.5586" fill="#FEF7FF" fill-opacity="0.47"/>
<path fill-rule="evenodd" clip-rule="evenodd" d="M70 45.5586C70.7905 45.5586 71.563 45.2391 72.1225 44.6796C72.6805 44.1216 73 43.3491 73 42.5586C73 41.7681 72.6805 40.9956 72.1225 40.4376C71.563 39.8781 70.7905 39.5586 70 39.5586C69.211 39.5586 68.437 39.8781 67.879 40.4376C67.3195 40.9956 67 41.7681 67 42.5586C67 43.3491 67.3195 44.1216 67.879 44.6796C68.437 45.2391 69.211 45.5586 70 45.5586" fill="#FEF7FF" fill-opacity="0.47"/>
<path fill-rule="evenodd" clip-rule="evenodd" d="M102.993 45.5586H103.007C104.661 45.5586 106 44.2146 106 42.5586C106 40.9026 104.661 39.5586 103.007 39.5586H102.993C101.341 39.5586 100 40.9026 100 42.5586C100 44.2146 101.341 45.5586 102.993 45.5586" fill="#FEF7FF" fill-opacity="0.47"/>
<path fill-rule="evenodd" clip-rule="evenodd" d="M85.9925 45.5586H86.0075C87.6594 45.5586 89 44.2146 89 42.5586C89 40.9026 87.6594 39.5586 86.0075 39.5586H85.9925C84.3406 39.5586 83 40.9026 83 42.5586C83 44.2146 84.3406 45.5586 85.9925 45.5586" fill="#FEF7FF" fill-opacity="0.47"/>
<mask id="mask3_5963_12664" style="mask-type:luminance" maskUnits="userSpaceOnUse" x="116" y="40" width="7" height="7">
<path fill-rule="evenodd" clip-rule="evenodd" d="M116.303 40.0352H122.702V46.4352H116.303V40.0352Z" fill="white"/>
</mask>
<g mask="url(#mask3_5963_12664)">
<path fill-rule="evenodd" clip-rule="evenodd" d="M119.503 46.4352C120.344 46.4352 121.17 46.0944 121.765 45.4976C122.362 44.9024 122.703 44.0784 122.703 43.2352C122.703 42.392 122.362 41.568 121.765 40.9728C121.17 40.376 120.344 40.0352 119.503 40.0352C118.66 40.0352 117.836 40.376 117.239 40.9728C116.644 41.568 116.303 42.392 116.303 43.2352C116.303 44.0784 116.644 44.9024 117.239 45.4976C117.836 46.0944 118.66 46.4352 119.503 46.4352" fill="#FEF7FF" fill-opacity="0.47"/>
</g>
<path fill-rule="evenodd" clip-rule="evenodd" d="M3 59.5586C3.789 59.5586 4.563 59.2391 5.121 58.6796C5.6805 58.1216 6 57.3491 6 56.5586C6 55.7696 5.6805 54.9956 5.121 54.4376C4.563 53.8781 3.789 53.5586 3 53.5586C2.2095 53.5586 1.437 53.8781 0.8775 54.4376C0.3195 54.9956 0 55.7696 0 56.5586C0 57.3491 0.3195 58.1216 0.8775 58.6796C1.437 59.2391 2.2095 59.5586 3 59.5586" fill="#FEF7FF" fill-opacity="0.47"/>
<path fill-rule="evenodd" clip-rule="evenodd" d="M35.9925 59.5586H36.0075C37.6608 59.5586 39 58.2146 39 56.5586C39 54.9026 37.6608 53.5586 36.0075 53.5586H35.9925C34.3406 53.5586 33 54.9026 33 56.5586C33 58.2146 34.3406 59.5586 35.9925 59.5586" fill="#FEF7FF" fill-opacity="0.47"/>
<path fill-rule="evenodd" clip-rule="evenodd" d="M19.9925 59.5586H20.0075C21.6594 59.5586 23 58.2146 23 56.5586C23 54.9026 21.6594 53.5586 20.0075 53.5586H19.9925C18.3406 53.5586 17 54.9026 17 56.5586C17 58.2146 18.3406 59.5586 19.9925 59.5586" fill="#FEF7FF" fill-opacity="0.47"/>
<path fill-rule="evenodd" clip-rule="evenodd" d="M53 59.5586C53.789 59.5586 54.563 59.2391 55.121 58.6796C55.6805 58.1216 56 57.3491 56 56.5586C56 55.7696 55.6805 54.9956 55.121 54.4376C54.563 53.8781 53.789 53.5586 53 53.5586C52.2095 53.5586 51.437 53.8781 50.8775 54.4376C50.3195 54.9956 50 55.7696 50 56.5586C50 57.3491 50.3195 58.1216 50.8775 58.6796C51.437 59.2391 52.2095 59.5586 53 59.5586" fill="#FEF7FF" fill-opacity="0.47"/>
<path fill-rule="evenodd" clip-rule="evenodd" d="M70 59.5586C70.7905 59.5586 71.563 59.2391 72.1225 58.6796C72.6805 58.1216 73 57.3491 73 56.5586C73 55.7696 72.6805 54.9956 72.1225 54.4376C71.563 53.8781 70.7905 53.5586 70 53.5586C69.211 53.5586 68.437 53.8781 67.879 54.4376C67.3195 54.9956 67 55.7696 67 56.5586C67 57.3491 67.3195 58.1216 67.879 58.6796C68.437 59.2391 69.211 59.5586 70 59.5586" fill="#FEF7FF" fill-opacity="0.47"/>
<path fill-rule="evenodd" clip-rule="evenodd" d="M102.993 59.5586H103.007C104.661 59.5586 106 58.2146 106 56.5586C106 54.9026 104.661 53.5586 103.007 53.5586H102.993C101.341 53.5586 100 54.9026 100 56.5586C100 58.2146 101.341 59.5586 102.993 59.5586" fill="#FEF7FF" fill-opacity="0.47"/>
<path fill-rule="evenodd" clip-rule="evenodd" d="M85.9925 59.5586H86.0075C87.6594 59.5586 89 58.2146 89 56.5586C89 54.9026 87.6594 53.5586 86.0075 53.5586H85.9925C84.3406 53.5586 83 54.9026 83 56.5586C83 58.2146 84.3406 59.5586 85.9925 59.5586" fill="#FEF7FF" fill-opacity="0.47"/>
<mask id="mask4_5963_12664" style="mask-type:luminance" maskUnits="userSpaceOnUse" x="116" y="52" width="7" height="8">
<path fill-rule="evenodd" clip-rule="evenodd" d="M116.303 52.7773H122.702V59.1773H116.303V52.7773Z" fill="white"/>
</mask>
<g mask="url(#mask4_5963_12664)">
<path fill-rule="evenodd" clip-rule="evenodd" d="M119.503 59.1773C120.344 59.1773 121.17 58.8365 121.765 58.2397C122.362 57.6445 122.703 56.8205 122.703 55.9773C122.703 55.1357 122.362 54.3101 121.765 53.7149C121.17 53.1181 120.344 52.7773 119.503 52.7773C118.66 52.7773 117.836 53.1181 117.239 53.7149C116.644 54.3101 116.303 55.1357 116.303 55.9773C116.303 56.8205 116.644 57.6445 117.239 58.2397C117.836 58.8365 118.66 59.1773 119.503 59.1773" fill="#FEF7FF" fill-opacity="0.47"/>
</g>
<path fill-rule="evenodd" clip-rule="evenodd" d="M3 72.5586C3.789 72.5586 4.563 72.2391 5.121 71.6811C5.6805 71.1216 6 70.3491 6 69.5586C6 68.7696 5.6805 67.9956 5.121 67.4376C4.563 66.8781 3.789 66.5586 3 66.5586C2.2095 66.5586 1.437 66.8781 0.8775 67.4376C0.3195 67.9956 0 68.7696 0 69.5586C0 70.3491 0.3195 71.1216 0.8775 71.6811C1.437 72.2391 2.2095 72.5586 3 72.5586" fill="#FEF7FF" fill-opacity="0.47"/>
<path fill-rule="evenodd" clip-rule="evenodd" d="M35.9925 72.5586H36.0075C37.6608 72.5586 39 71.2146 39 69.5586C39 67.9026 37.6608 66.5586 36.0075 66.5586H35.9925C34.3406 66.5586 33 67.9026 33 69.5586C33 71.2146 34.3406 72.5586 35.9925 72.5586" fill="#FEF7FF" fill-opacity="0.47"/>
<path fill-rule="evenodd" clip-rule="evenodd" d="M19.9925 72.5586H20.0075C21.6594 72.5586 23 71.2146 23 69.5586C23 67.9026 21.6594 66.5586 20.0075 66.5586H19.9925C18.3406 66.5586 17 67.9026 17 69.5586C17 71.2146 18.3406 72.5586 19.9925 72.5586" fill="#FEF7FF" fill-opacity="0.47"/>
<path fill-rule="evenodd" clip-rule="evenodd" d="M53 72.5586C53.789 72.5586 54.563 72.2391 55.121 71.6811C55.6805 71.1216 56 70.3491 56 69.5586C56 68.7696 55.6805 67.9956 55.121 67.4376C54.563 66.8781 53.789 66.5586 53 66.5586C52.2095 66.5586 51.437 66.8781 50.8775 67.4376C50.3195 67.9956 50 68.7696 50 69.5586C50 70.3491 50.3195 71.1216 50.8775 71.6811C51.437 72.2391 52.2095 72.5586 53 72.5586" fill="#FEF7FF" fill-opacity="0.47"/>
<path fill-rule="evenodd" clip-rule="evenodd" d="M70 72.5586C70.7905 72.5586 71.563 72.2391 72.1225 71.6811C72.6805 71.1216 73 70.3491 73 69.5586C73 68.7696 72.6805 67.9956 72.1225 67.4376C71.563 66.8781 70.7905 66.5586 70 66.5586C69.211 66.5586 68.437 66.8781 67.879 67.4376C67.3195 67.9956 67 68.7696 67 69.5586C67 70.3491 67.3195 71.1216 67.879 71.6811C68.437 72.2391 69.211 72.5586 70 72.5586" fill="#FEF7FF" fill-opacity="0.47"/>
<path fill-rule="evenodd" clip-rule="evenodd" d="M102.993 72.5586H103.007C104.661 72.5586 106 71.2146 106 69.5586C106 67.9026 104.661 66.5586 103.007 66.5586H102.993C101.341 66.5586 100 67.9026 100 69.5586C100 71.2146 101.341 72.5586 102.993 72.5586" fill="#FEF7FF" fill-opacity="0.47"/>
<path fill-rule="evenodd" clip-rule="evenodd" d="M85.9925 72.5586H86.0075C87.6594 72.5586 89 71.2146 89 69.5586C89 67.9026 87.6594 66.5586 86.0075 66.5586H85.9925C84.3406 66.5586 83 67.9026 83 69.5586C83 71.2146 84.3406 72.5586 85.9925 72.5586" fill="#FEF7FF" fill-opacity="0.47"/>
<mask id="mask5_5963_12664" style="mask-type:luminance" maskUnits="userSpaceOnUse" x="116" y="66" width="7" height="7">
<path fill-rule="evenodd" clip-rule="evenodd" d="M116.303 66.1211H122.702V72.5211H116.303V66.1211Z" fill="white"/>
</mask>
<g mask="url(#mask5_5963_12664)">
<path fill-rule="evenodd" clip-rule="evenodd" d="M119.503 72.5211C120.344 72.5211 121.17 72.1803 121.765 71.5851C122.362 70.9883 122.703 70.1643 122.703 69.3211C122.703 68.4795 122.362 67.6539 121.765 67.0587C121.17 66.4619 120.344 66.1211 119.503 66.1211C118.66 66.1211 117.836 66.4619 117.239 67.0587C116.644 67.6539 116.303 68.4795 116.303 69.3211C116.303 70.1643 116.644 70.9883 117.239 71.5851C117.836 72.1803 118.66 72.5211 119.503 72.5211" fill="#FEF7FF" fill-opacity="0.47"/>
</g>
<path fill-rule="evenodd" clip-rule="evenodd" d="M3 85.5586C3.789 85.5586 4.563 85.2391 5.121 84.6796C5.6805 84.1216 6 83.3491 6 82.5586C6 81.7696 5.6805 80.9956 5.121 80.4376C4.563 79.8781 3.789 79.5586 3 79.5586C2.2095 79.5586 1.437 79.8781 0.8775 80.4376C0.3195 80.9956 0 81.7696 0 82.5586C0 83.3491 0.3195 84.1216 0.8775 84.6796C1.437 85.2391 2.2095 85.5586 3 85.5586" fill="#FEF7FF" fill-opacity="0.47"/>
<path fill-rule="evenodd" clip-rule="evenodd" d="M35.9925 85.5586H36.0075C37.6608 85.5586 39 84.2146 39 82.5586C39 80.9026 37.6608 79.5586 36.0075 79.5586H35.9925C34.3406 79.5586 33 80.9026 33 82.5586C33 84.2146 34.3406 85.5586 35.9925 85.5586" fill="#FEF7FF" fill-opacity="0.47"/>
<path fill-rule="evenodd" clip-rule="evenodd" d="M19.9925 85.5586H20.0075C21.6594 85.5586 23 84.2146 23 82.5586C23 80.9026 21.6594 79.5586 20.0075 79.5586H19.9925C18.3406 79.5586 17 80.9026 17 82.5586C17 84.2146 18.3406 85.5586 19.9925 85.5586" fill="#FEF7FF" fill-opacity="0.47"/>
<path fill-rule="evenodd" clip-rule="evenodd" d="M53 85.5586C53.789 85.5586 54.563 85.2391 55.121 84.6796C55.6805 84.1216 56 83.3491 56 82.5586C56 81.7696 55.6805 80.9956 55.121 80.4376C54.563 79.8781 53.789 79.5586 53 79.5586C52.2095 79.5586 51.437 79.8781 50.8775 80.4376C50.3195 80.9956 50 81.7696 50 82.5586C50 83.3491 50.3195 84.1216 50.8775 84.6796C51.437 85.2391 52.2095 85.5586 53 85.5586" fill="#FEF7FF" fill-opacity="0.47"/>
<path fill-rule="evenodd" clip-rule="evenodd" d="M70 85.5586C70.7905 85.5586 71.563 85.2391 72.1225 84.6796C72.6805 84.1216 73 83.3491 73 82.5586C73 81.7696 72.6805 80.9956 72.1225 80.4376C71.563 79.8781 70.7905 79.5586 70 79.5586C69.211 79.5586 68.437 79.8781 67.879 80.4376C67.3195 80.9956 67 81.7696 67 82.5586C67 83.3491 67.3195 84.1216 67.879 84.6796C68.437 85.2391 69.211 85.5586 70 85.5586" fill="#FEF7FF" fill-opacity="0.47"/>
<path fill-rule="evenodd" clip-rule="evenodd" d="M102.993 85.5586H103.007C104.661 85.5586 106 84.2146 106 82.5586C106 80.9026 104.661 79.5586 103.007 79.5586H102.993C101.341 79.5586 100 80.9026 100 82.5586C100 84.2146 101.341 85.5586 102.993 85.5586" fill="#FEF7FF" fill-opacity="0.47"/>
<path fill-rule="evenodd" clip-rule="evenodd" d="M85.9925 85.5586H86.0075C87.6594 85.5586 89 84.2146 89 82.5586C89 80.9026 87.6594 79.5586 86.0075 79.5586H85.9925C84.3406 79.5586 83 80.9026 83 82.5586C83 84.2146 84.3406 85.5586 85.9925 85.5586" fill="#FEF7FF" fill-opacity="0.47"/>
<mask id="mask6_5963_12664" style="mask-type:luminance" maskUnits="userSpaceOnUse" x="116" y="79" width="7" height="7">
<path fill-rule="evenodd" clip-rule="evenodd" d="M116.303 79.4688H122.702V85.8688H116.303V79.4688Z" fill="white"/>
</mask>
<g mask="url(#mask6_5963_12664)">
<path fill-rule="evenodd" clip-rule="evenodd" d="M119.503 85.8688C120.344 85.8688 121.17 85.5279 121.765 84.9311C122.362 84.3359 122.703 83.512 122.703 82.6688C122.703 81.8272 122.362 81.0016 121.765 80.4064C121.17 79.8095 120.344 79.4688 119.503 79.4688C118.66 79.4688 117.836 79.8095 117.239 80.4064C116.644 81.0016 116.303 81.8272 116.303 82.6688C116.303 83.512 116.644 84.3359 117.239 84.9311C117.836 85.5279 118.66 85.8688 119.503 85.8688" fill="#FEF7FF" fill-opacity="0.47"/>
</g>
<path fill-rule="evenodd" clip-rule="evenodd" d="M3 98.5586C3.789 98.5586 4.563 98.2391 5.121 97.6811C5.6805 97.1216 6 96.3491 6 95.5586C6 94.7696 5.6805 93.9956 5.121 93.4376C4.563 92.8781 3.789 92.5586 3 92.5586C2.2095 92.5586 1.437 92.8781 0.8775 93.4376C0.3195 93.9956 0 94.7696 0 95.5586C0 96.3491 0.3195 97.1216 0.8775 97.6811C1.437 98.2391 2.2095 98.5586 3 98.5586" fill="#FEF7FF" fill-opacity="0.47"/>
<path fill-rule="evenodd" clip-rule="evenodd" d="M35.9925 98.5586H36.0075C37.6608 98.5586 39 97.2161 39 95.5586C39 93.9026 37.6608 92.5586 36.0075 92.5586H35.9925C34.3406 92.5586 33 93.9026 33 95.5586C33 97.2161 34.3406 98.5586 35.9925 98.5586" fill="#FEF7FF" fill-opacity="0.47"/>
<path fill-rule="evenodd" clip-rule="evenodd" d="M19.9925 98.5586H20.0075C21.6594 98.5586 23 97.2161 23 95.5586C23 93.9026 21.6594 92.5586 20.0075 92.5586H19.9925C18.3406 92.5586 17 93.9026 17 95.5586C17 97.2161 18.3406 98.5586 19.9925 98.5586" fill="#FEF7FF" fill-opacity="0.47"/>
<path fill-rule="evenodd" clip-rule="evenodd" d="M53 98.5586C53.789 98.5586 54.563 98.2391 55.121 97.6811C55.6805 97.1216 56 96.3491 56 95.5586C56 94.7696 55.6805 93.9956 55.121 93.4376C54.563 92.8781 53.789 92.5586 53 92.5586C52.2095 92.5586 51.437 92.8781 50.8775 93.4376C50.3195 93.9956 50 94.7696 50 95.5586C50 96.3491 50.3195 97.1216 50.8775 97.6811C51.437 98.2391 52.2095 98.5586 53 98.5586" fill="#FEF7FF" fill-opacity="0.47"/>
<path fill-rule="evenodd" clip-rule="evenodd" d="M70 98.5586C70.7905 98.5586 71.563 98.2391 72.1225 97.6811C72.6805 97.1216 73 96.3491 73 95.5586C73 94.7696 72.6805 93.9956 72.1225 93.4376C71.563 92.8781 70.7905 92.5586 70 92.5586C69.211 92.5586 68.437 92.8781 67.879 93.4376C67.3195 93.9956 67 94.7696 67 95.5586C67 96.3491 67.3195 97.1216 67.879 97.6811C68.437 98.2391 69.211 98.5586 70 98.5586" fill="#FEF7FF" fill-opacity="0.47"/>
<path fill-rule="evenodd" clip-rule="evenodd" d="M102.993 98.5586H103.007C104.661 98.5586 106 97.2161 106 95.5586C106 93.9026 104.661 92.5586 103.007 92.5586H102.993C101.341 92.5586 100 93.9026 100 95.5586C100 97.2161 101.341 98.5586 102.993 98.5586" fill="#FEF7FF" fill-opacity="0.47"/>
<path fill-rule="evenodd" clip-rule="evenodd" d="M85.9925 98.5586H86.0075C87.6594 98.5586 89 97.2161 89 95.5586C89 93.9026 87.6594 92.5586 86.0075 92.5586H85.9925C84.3406 92.5586 83 93.9026 83 95.5586C83 97.2161 84.3406 98.5586 85.9925 98.5586" fill="#FEF7FF" fill-opacity="0.47"/>
<mask id="mask7_5963_12664" style="mask-type:luminance" maskUnits="userSpaceOnUse" x="116" y="92" width="7" height="8">
<path fill-rule="evenodd" clip-rule="evenodd" d="M116.303 92.8125H122.702V99.2125H116.303V92.8125Z" fill="white"/>
</mask>
<g mask="url(#mask7_5963_12664)">
<path fill-rule="evenodd" clip-rule="evenodd" d="M119.503 99.2125C120.344 99.2125 121.17 98.8717 121.765 98.2765C122.362 97.6797 122.703 96.8557 122.703 96.0125C122.703 95.1709 122.362 94.3453 121.765 93.7501C121.17 93.1533 120.344 92.8125 119.503 92.8125C118.66 92.8125 117.836 93.1533 117.239 93.7501C116.644 94.3453 116.303 95.1709 116.303 96.0125C116.303 96.8557 116.644 97.6797 117.239 98.2765C117.836 98.8717 118.66 99.2125 119.503 99.2125" fill="#FEF7FF" fill-opacity="0.47"/>
</g>
<mask id="mask8_5963_12664" style="mask-type:luminance" maskUnits="userSpaceOnUse" x="0" y="105" width="6" height="7">
<path fill-rule="evenodd" clip-rule="evenodd" d="M0 105.559H6V111.558H0V105.559Z" fill="white"/>
</mask>
<g mask="url(#mask8_5963_12664)">
<path fill-rule="evenodd" clip-rule="evenodd" d="M3 111.559C3.789 111.559 4.563 111.239 5.121 110.68C5.6805 110.122 6 109.348 6 108.559C6 107.768 5.6805 106.996 5.121 106.436C4.563 105.878 3.789 105.559 3 105.559C2.2095 105.559 1.437 105.878 0.8775 106.436C0.3195 106.996 0 107.768 0 108.559C0 109.348 0.3195 110.122 0.8775 110.68C1.437 111.239 2.2095 111.559 3 111.559" fill="#FEF7FF" fill-opacity="0.47"/>
</g>
<mask id="mask9_5963_12664" style="mask-type:luminance" maskUnits="userSpaceOnUse" x="32" y="105" width="8" height="7">
<path fill-rule="evenodd" clip-rule="evenodd" d="M32.9922 105.559H39.4082V111.558H32.9922V105.559Z" fill="white"/>
</mask>
<g mask="url(#mask9_5963_12664)">
<path fill-rule="evenodd" clip-rule="evenodd" d="M36.1922 111.559H36.2082C37.9762 111.559 39.4082 110.215 39.4082 108.559C39.4082 106.901 37.9762 105.559 36.2082 105.559H36.1922C34.4258 105.559 32.9922 106.901 32.9922 108.559C32.9922 110.215 34.4258 111.559 36.1922 111.559" fill="#FEF7FF" fill-opacity="0.47"/>
</g>
<mask id="mask10_5963_12664" style="mask-type:luminance" maskUnits="userSpaceOnUse" x="16" y="105" width="7" height="7">
<path fill-rule="evenodd" clip-rule="evenodd" d="M16.4922 105.559H22.9082V111.558H16.4922V105.559Z" fill="white"/>
</mask>
<g mask="url(#mask10_5963_12664)">
<path fill-rule="evenodd" clip-rule="evenodd" d="M19.6922 111.559H19.7082C21.4746 111.559 22.9082 110.215 22.9082 108.559C22.9082 106.901 21.4746 105.559 19.7082 105.559H19.6922C17.9258 105.559 16.4922 106.901 16.4922 108.559C16.4922 110.215 17.9258 111.559 19.6922 111.559" fill="#FEF7FF" fill-opacity="0.47"/>
</g>
<mask id="mask11_5963_12664" style="mask-type:luminance" maskUnits="userSpaceOnUse" x="49" y="105" width="7" height="7">
<path fill-rule="evenodd" clip-rule="evenodd" d="M49.502 105.559H55.902V111.558H49.502V105.559Z" fill="white"/>
</mask>
<g mask="url(#mask11_5963_12664)">
<path fill-rule="evenodd" clip-rule="evenodd" d="M52.702 111.559C53.5436 111.559 54.3692 111.239 54.9644 110.68C55.5612 110.122 55.902 109.348 55.902 108.559C55.902 107.768 55.5612 106.996 54.9644 106.436C54.3692 105.878 53.5436 105.559 52.702 105.559C51.8588 105.559 51.0348 105.878 50.438 106.436C49.8428 106.996 49.502 107.768 49.502 108.559C49.502 109.348 49.8428 110.122 50.438 110.68C51.0348 111.239 51.8588 111.559 52.702 111.559" fill="#FEF7FF" fill-opacity="0.47"/>
</g>
<mask id="mask12_5963_12664" style="mask-type:luminance" maskUnits="userSpaceOnUse" x="66" y="105" width="7" height="7">
<path fill-rule="evenodd" clip-rule="evenodd" d="M66.4004 105.559H72.8004V111.558H66.4004V105.559Z" fill="white"/>
</mask>
<g mask="url(#mask12_5963_12664)">
<path fill-rule="evenodd" clip-rule="evenodd" d="M69.6004 111.559C70.4436 111.559 71.2676 111.239 71.8644 110.68C72.4596 110.122 72.8004 109.348 72.8004 108.559C72.8004 107.768 72.4596 106.996 71.8644 106.436C71.2676 105.878 70.4436 105.559 69.6004 105.559C68.7588 105.559 67.9332 105.878 67.338 106.436C66.7412 106.996 66.4004 107.768 66.4004 108.559C66.4004 109.348 66.7412 110.122 67.338 110.68C67.9332 111.239 68.7588 111.559 69.6004 111.559" fill="#FEF7FF" fill-opacity="0.47"/>
</g>
<mask id="mask13_5963_12664" style="mask-type:luminance" maskUnits="userSpaceOnUse" x="99" y="105" width="7" height="7">
<path fill-rule="evenodd" clip-rule="evenodd" d="M99.3945 105.559H105.811V111.558H99.3945V105.559Z" fill="white"/>
</mask>
<g mask="url(#mask13_5963_12664)">
<path fill-rule="evenodd" clip-rule="evenodd" d="M102.595 111.559H102.611C104.379 111.559 105.811 110.215 105.811 108.559C105.811 106.901 104.379 105.559 102.611 105.559H102.595C100.828 105.559 99.3945 106.901 99.3945 108.559C99.3945 110.215 100.828 111.559 102.595 111.559" fill="#FEF7FF" fill-opacity="0.47"/>
</g>
<mask id="mask14_5963_12664" style="mask-type:luminance" maskUnits="userSpaceOnUse" x="82" y="105" width="8" height="7">
<path fill-rule="evenodd" clip-rule="evenodd" d="M82.8945 105.559H89.3105V111.558H82.8945V105.559Z" fill="white"/>
</mask>
<g mask="url(#mask14_5963_12664)">
<path fill-rule="evenodd" clip-rule="evenodd" d="M86.0945 111.559H86.1105C87.8769 111.559 89.3105 110.215 89.3105 108.559C89.3105 106.901 87.8769 105.559 86.1105 105.559H86.0945C84.3281 105.559 82.8945 106.901 82.8945 108.559C82.8945 110.215 84.3281 111.559 86.0945 111.559" fill="#FEF7FF" fill-opacity="0.47"/>
</g>
<mask id="mask15_5963_12664" style="mask-type:luminance" maskUnits="userSpaceOnUse" x="116" y="105" width="7" height="7">
<path fill-rule="evenodd" clip-rule="evenodd" d="M116.303 105.559H122.702V111.558H116.303V105.559Z" fill="white"/>
</mask>
<g mask="url(#mask15_5963_12664)">
<path fill-rule="evenodd" clip-rule="evenodd" d="M119.503 111.559C120.344 111.559 121.17 111.239 121.765 110.68C122.362 110.122 122.703 109.348 122.703 108.559C122.703 107.768 122.362 106.996 121.765 106.436C121.17 105.878 120.344 105.559 119.503 105.559C118.66 105.559 117.836 105.878 117.239 106.436C116.644 106.996 116.303 107.768 116.303 108.559C116.303 109.348 116.644 110.122 117.239 110.68C117.836 111.239 118.66 111.559 119.503 111.559" fill="#FEF7FF" fill-opacity="0.47"/>
</g>
</svg>
